<svg width="24" height="16" viewBox="0 0 24 16" fill="none" xmlns="http://www.w3.org/2000/svg">
<path d="M2.59228 10.4923C2.59228 11.4069 2.79347 12.1091 3.05634 12.5339C3.40106 13.0903 3.91509 13.326 4.43925 13.326C5.11528 13.326 5.73375 13.1586 6.9255 11.5135C7.88034 10.1949 9.00544 8.34395 9.76238 7.18363L11.0444 5.21778C11.9349 3.85254 12.9656 2.33488 14.1475 1.30611C15.1121 0.466433 16.1529 0 17.2003 0C18.9589 0 20.6339 1.01708 21.9159 2.92463C23.3189 5.01371 24 7.6451 24 10.3606C24 11.9749 23.6813 13.1611 23.1387 14.0982C22.6146 15.0045 21.593 15.91 19.8745 15.91V13.326C21.3459 13.326 21.7132 11.9766 21.7132 10.4323C21.7132 8.23158 21.199 5.78919 20.0665 4.04416C19.2627 2.80627 18.2212 2.04996 17.0753 2.04996C15.8359 2.04996 14.8385 2.98283 13.7176 4.64646C13.1217 5.5302 12.5099 6.60725 11.8231 7.8225L11.0669 9.15949C9.54787 11.8475 9.16312 12.4597 8.40366 13.4701C7.07241 15.2395 5.93578 15.91 4.43925 15.91C2.66409 15.91 1.54144 15.1427 0.846281 13.9866C0.278719 13.0445 0 11.8084 0 10.3998L2.59228 10.4923Z" fill="#0081FB"/>
<path d="M2.04395 3.10699C3.23251 1.27869 4.94757 0 6.91473 0C8.05407 0 9.18657 0.336561 10.3692 1.3003C11.6628 2.35396 13.0416 4.08908 14.7617 6.94877L15.3786 7.97492C16.8674 10.4506 17.7145 11.7242 18.2103 12.3249C18.848 13.0961 19.2945 13.326 19.8745 13.326C21.3459 13.326 21.7132 11.9766 21.7132 10.4323L24 10.3606C24 11.9749 23.6813 13.1611 23.1387 14.0982C22.6146 15.0045 21.593 15.91 19.8745 15.91C18.8063 15.91 17.8599 15.6784 16.8132 14.693C16.0087 13.9367 15.0681 12.593 14.3444 11.3852L12.1919 7.79668C11.112 5.99579 10.1213 4.6531 9.54798 4.04491C8.93129 3.39106 8.13835 2.60136 6.8731 2.60136C5.84907 2.60136 4.97935 3.31864 4.25157 4.41563L2.04395 3.10699Z" fill="url(#paint0_linear_278_12)"/>
<path d="M6.873 2.60136C5.84897 2.60136 4.97925 3.31864 4.25147 4.41563C3.22247 5.96585 2.59228 8.27481 2.59228 10.4923C2.59228 11.4069 2.79347 12.1091 3.05634 12.5339L0.846281 13.9866C0.278719 13.0445 0 11.8084 0 10.3998C0 7.83832 0.704437 5.16866 2.04394 3.10699C3.2325 1.27869 4.94756 0 6.91472 0L6.873 2.60136Z" fill="url(#paint1_linear_278_12)"/>
<defs>
<linearGradient id="paint0_linear_278_12" x1="306.75" y1="889.909" x2="1957.29" y2="973.435" gradientUnits="userSpaceOnUse">
<stop stop-color="#0064E1"/>
<stop offset="0.4" stop-color="#0064E1"/>
<stop offset="0.83" stop-color="#0073EE"/>
<stop offset="1" stop-color="#0082FB"/>
</linearGradient>
<linearGradient id="paint1_linear_278_12" x1="375.573" y1="1157.84" x2="375.573" y2="549.772" gradientUnits="userSpaceOnUse">
<stop stop-color="#0082FB"/>
<stop offset="1" stop-color="#0064E0"/>
</linearGradient>
</defs>
</svg>
